<?xml version="1.0" encoding="utf-8"?>
<!-- Generator: Adobe Illustrator 17.0.0, SVG Export Plug-In . SVG Version: 6.00 Build 0)  -->
<!DOCTYPE svg PUBLIC "-//W3C//DTD SVG 1.1//EN" "http://www.w3.org/Graphics/SVG/1.1/DTD/svg11.dtd">
<svg version="1.1" id="objects" xmlns="http://www.w3.org/2000/svg" xmlns:xlink="http://www.w3.org/1999/xlink" x="0px" y="0px"
	 width="1471.426px" height="541.305px" viewBox="0 0 1471.426 541.305" enable-background="new 0 0 1471.426 541.305"
	 xml:space="preserve">
<g>
	<g>
		<path fill="#CFCF83" d="M109.181,526.709c0,0,97.978-92.955,119.477-93.705c21.5-0.749,122.417,93.705,122.417,93.705H109.181z"/>
		<path fill="#DFDE9F" d="M162.722,481.75c3.25,1.424,7.004-0.123,9.97-1.551c6.647-3.197,14.46-6.755,21.436-2.224
			c1.744,1.132,3.717,3.631,5.818,4.02c3.673,0.68,7.555-1.721,10.796-3.089c7.212-3.045,13.572-2.247,19.184,3.293
			c2.15,2.12,4.707,4.794,8.083,3.88c2.752-0.745,4.875-2.593,7.119-4.268c5.193-3.874,11.13-5.485,17.3-2.734
			c3.031,1.353,5.575,3.616,8.624,4.903c4.079,1.723,5.603-0.999,8.208-3.511c2.447-2.361,5.433-4.661,8.865-5.306
			c1.305-0.245,2.618-0.39,3.934-0.495c-26.217-21.761-53.402-42.013-63.402-41.665c-10.806,0.377-40.931,24.048-68.226,47.501
			C161.171,480.976,161.933,481.403,162.722,481.75z"/>
		<path fill="#D2B350" d="M265.269,529.643c0,0,130.793-124.086,159.49-125.086c28.701-1,163.416,125.086,163.416,125.086H265.269z"
			/>
		<path fill="#E5C56E" d="M358.313,465.03c6.922-0.033,12.669-4.977,19.543-5.454c5.283-0.366,10.186,1.522,14.659,4.194
			c3.891,2.324,7.872,5.503,12.459,6.249c5.732,0.933,9.869-3.674,14.979-5.328c6.903-2.239,13.004-0.5,19.82,0.969
			c3.744,0.806,6.705,0.954,9.659-1.664c1.978-1.754,4.01-3.372,6.509-4.325c7.039-2.684,13.499-1.042,20.307,1.558
			c0.079,0.03,0.147,0.069,0.221,0.102c3.842-1.153,7.721-2.536,9.6-5.41c2.149-3.283,3.725-6.908,5.029-10.625
			c-28.659-22.764-55.316-41.124-66.339-40.74c-12.669,0.441-45.236,24.872-77.663,52.026
			C349.682,460.918,353.2,465.054,358.313,465.03z"/>
		<path fill="#64842C" d="M512.694,509.194c0-5.012-4.326-11.009-8.716-11.009c-4.389,0-8.709,6.124-8.709,11.136
			c0,4.728,3.849,6.774,7.97,6.991v4.645h1.199l-0.286-4.628C508.48,516.271,512.694,514.138,512.694,509.194z"/>
		<path fill="#779D2C" d="M620.904,499.73c0-8.154-7.04-17.911-14.182-17.911c-7.14,0-14.17,9.964-14.17,18.119
			c0,7.644,6.182,10.983,12.838,11.371l-0.471,14.1l3.272-2.822l-1.044-11.248C614.141,511.204,620.904,507.721,620.904,499.73z"/>
		<path fill="#64842C" d="M105.475,510.003c0-5.122-4.422-11.25-8.907-11.25c-4.487,0-8.901,6.257-8.901,11.38
			c0,4.832,3.933,6.924,8.145,7.145v4.746h1.225l-0.292-4.73C101.168,517.236,105.475,515.056,105.475,510.003z"/>
		<path fill="#779D2C" d="M188.327,507.181c0-4.93-4.257-10.829-8.576-10.829c-4.317,0-8.568,6.025-8.568,10.955
			c0,4.624,3.738,6.642,7.762,6.876l-0.285,8.526l1.978-1.706l-0.631-6.801C184.237,514.12,188.327,512.014,188.327,507.181z"/>
		<circle fill="#E5C56E" cx="344.275" cy="473.642" r="1.588"/>
		<circle fill="#E5C56E" cx="350.981" cy="480.428" r="3.885"/>
		<circle fill="#E5C56E" cx="360.558" cy="478.792" r="2.25"/>
		<circle fill="#E5C56E" cx="409.801" cy="480.513" r="1.721"/>
		<circle fill="#E5C56E" cx="428.995" cy="484.483" r="3.442"/>
		<circle fill="#E5C56E" cx="418.934" cy="480.381" r="1.589"/>
		<circle fill="#E5C56E" cx="470.03" cy="477.613" r="3.971"/>
		<circle fill="#E5C56E" cx="477.178" cy="473.378" r="1.324"/>
		<circle fill="#E5C56E" cx="486.841" cy="474.039" r="1.985"/>
		<circle fill="#DFDE9F" cx="186.885" cy="485.504" r="1.191"/>
		<circle fill="#DFDE9F" cx="194.562" cy="488.778" r="2.515"/>
		<circle fill="#DFDE9F" cx="201.975" cy="489.38" r="1.456"/>
		<circle fill="#DFDE9F" cx="249.497" cy="490.63" r="1.853"/>
		<circle fill="#DFDE9F" cx="254.792" cy="489.778" r="1.853"/>
		<circle fill="#DFDE9F" cx="260.351" cy="490.837" r="1.059"/>
		<circle fill="#DFDE9F" cx="282.855" cy="489.515" r="1.588"/>
		<circle fill="#DFDE9F" cx="287.091" cy="487.092" r="1.588"/>
		<g>
			<polygon fill="#FDFAE2" points="217.168,505.23 218.734,504.066 220.299,505.23 220.299,521.424 217.168,521.424 			"/>
			<polygon fill="#FDFAE2" points="210.509,505.23 212.075,504.066 213.641,505.23 213.641,521.424 210.509,521.424 			"/>
			<polygon fill="#FDFAE2" points="203.738,505.23 205.303,504.066 206.868,505.23 206.868,521.424 203.738,521.424 			"/>
			<polygon fill="#FDFAE2" points="196.965,505.23 198.53,504.066 200.096,505.23 200.096,521.424 196.965,521.424 			"/>
			<polygon fill="#FDFAE2" points="190.079,505.23 191.644,504.066 193.21,505.23 193.21,521.424 190.079,521.424 			"/>
			<rect x="191.16" y="508.506" fill="#FDFAE2" width="35.113" height="1.024"/>
			<rect x="191.16" y="515.335" fill="#FDFAE2" width="33.162" height="1.024"/>
		</g>
		<g>
			<polygon fill="#FDFAE2" points="259.149,505.23 257.584,504.066 256.019,505.23 256.019,521.424 259.149,521.424 			"/>
			<polygon fill="#FDFAE2" points="265.808,505.23 264.242,504.066 262.677,505.23 262.677,521.424 265.808,521.424 			"/>
			<polygon fill="#FDFAE2" points="272.58,505.23 271.015,504.066 269.449,505.23 269.449,521.424 272.58,521.424 			"/>
			<polygon fill="#FDFAE2" points="279.353,505.23 277.787,504.066 276.222,505.23 276.222,521.424 279.353,521.424 			"/>
			<polygon fill="#FDFAE2" points="286.238,505.23 284.673,504.066 283.108,505.23 283.108,521.424 286.238,521.424 			"/>
			<rect x="250.045" y="508.506" fill="#FDFAE2" width="35.112" height="1.024"/>
			<rect x="251.995" y="515.335" fill="#FDFAE2" width="33.162" height="1.024"/>
		</g>
		<rect x="0.723" y="521.052" fill="#97C151" width="683.333" height="20.253"/>
		<path opacity="0.8" fill="#8AAD4A" enable-background="new    " d="M0.723,521.052v9.624c3.418,0.553,6.793,0.912,10.147,1.135
			c3.863-0.06,7.721-0.185,11.566-0.453c8.144-0.565,15.837-2.131,23.823-3.365c13.729-2.123,28.082-2.852,41.324,1.332
			c11.894,3.761,23.262,6.402,35.774,7.327c8.46-1.355,16.949-2.584,25.61-2.672c0.992-0.01,1.841,0.197,2.548,0.538
			c15.009-0.091,29.825-2.05,44.79-2.804c7.83-0.393,15.778-0.58,23.577,0.245c7.131,0.754,13.886,2.696,20.961,3.496
			c7.096,0.802,14.251,0.193,21.375-0.063c4.919-1.308,10.051-2.01,15.365-1.919c7.531,0.129,14.951,1.268,22.471,1.513
			c9.516,0.31,17.868-2.233,27.139-3.356c8.038-0.973,15.169,0.772,22.741,2.632c14.564,3.577,27.196-0.643,41.576-2.393
			c15.275-1.857,30.128,2.026,45.25,2.962c14.917,0.923,28.655-4.115,43.458-4.031c14.786,0.084,29.397,1.778,44.115-0.112
			c13.579-1.744,26.904-3.9,40.64-1.649c15.778,2.587,30.718,5.896,46.936,3.054c13.389-2.346,25.363-4.299,38.756-0.586
			c11.158,3.092,21.56,7.552,33.392,8.208V521.05H0.723V521.052z"/>
		<rect x="0.723" y="541.305" fill="#BE9C40" width="683.333" height="13.174"/>
	</g>
</g>
<g>
	<g>
		<g>
			<g>
				<g>
					<g>
						<g>
							<rect x="1019.516" y="448.544" fill="#F7E4BA" width="44.14" height="75.843"/>
							<rect x="1056.532" y="448.544" fill="#F8E0A9" width="6.785" height="75.843"/>
						</g>
						<rect x="1017.628" y="443.623" fill="#6A7172" width="47.915" height="4.921"/>
					</g>
					<g>
						<g>
							<rect x="1046.862" y="454.435" fill="#007298" width="7.694" height="12.628"/>
							<polygon fill="#005E85" points="1046.862,467.063 1054.556,467.063 1046.862,454.435 							"/>
						</g>
						<g>
							<rect x="1031.718" y="454.435" fill="#007298" width="7.695" height="12.628"/>
							<polygon fill="#005E85" points="1031.718,467.063 1039.413,467.063 1031.718,454.435 							"/>
						</g>
						<g>
							<rect x="1046.862" y="493.687" fill="#007298" width="7.694" height="12.627"/>
							<polygon fill="#005E85" points="1046.862,506.314 1054.556,506.314 1046.862,493.687 							"/>
						</g>
						<g>
							<rect x="1031.718" y="493.687" fill="#007298" width="7.695" height="12.627"/>
							<polygon fill="#005E85" points="1031.718,506.314 1039.413,506.314 1031.718,493.687 							"/>
						</g>
						<g>
							<rect x="1046.862" y="473.424" fill="#007298" width="7.694" height="12.627"/>
							<polygon fill="#005E85" points="1046.862,486.051 1054.556,486.051 1046.862,473.424 							"/>
						</g>
						<g>
							<rect x="1031.718" y="473.424" fill="#007298" width="7.695" height="12.627"/>
							<polygon fill="#005E85" points="1031.718,486.051 1039.413,486.051 1031.718,473.424 							"/>
						</g>
					</g>
				</g>
				<g>
					<rect x="1034.307" y="421.32" fill="#C33A32" width="14.391" height="9.313"/>
					<rect x="1033.739" y="421.32" fill="#333E48" width="1.137" height="21.989"/>
				</g>
			</g>
			<g>
				<g>
					<rect x="869.767" y="470.531" fill="#00556F" width="56.868" height="25.332"/>
					<rect x="869.767" y="498.636" fill="#00556F" width="56.868" height="24.269"/>
					<rect x="868.768" y="495.195" fill="#73243D" width="58.867" height="3.924"/>
				</g>
				<g>
					<rect x="894.524" y="513.404" fill="#916928" width="7.355" height="9.502"/>
					<polygon fill="#6D5D35" points="894.524,513.404 901.879,522.905 894.524,522.905 					"/>
					<ellipse fill="#FFA400" cx="895.716" cy="518.154" rx="0.43" ry="0.422"/>
				</g>
				<g>
					<g>
						<g>
							<g>
								<rect x="891.63" y="476.478" fill="#9ECDD9" width="12.397" height="4.552"/>
								<polygon fill="#83BBC8" points="891.63,481.029 904.027,481.029 891.63,476.478 								"/>
							</g>
						</g>
						<g>
							<g>
								<rect x="873.796" y="476.478" fill="#9ECDD9" width="12.396" height="4.552"/>
								<polygon fill="#83BBC8" points="873.796,481.029 886.192,481.029 873.796,476.478 								"/>
							</g>
						</g>
						<g>
							<g>
								<rect x="891.63" y="486.564" fill="#9ECDD9" width="12.397" height="4.554"/>
								<polygon fill="#83BBC8" points="891.63,491.117 904.027,491.117 891.63,486.563 								"/>
							</g>
						</g>
						<g>
							<g>
								<rect x="873.796" y="486.564" fill="#9ECDD9" width="12.396" height="4.554"/>
								<polygon fill="#83BBC8" points="873.796,491.117 886.192,491.117 873.796,486.563 								"/>
							</g>
						</g>
					</g>
					<g>
						<g>
							<rect x="880.536" y="504.582" fill="#9ECDD9" width="12.399" height="4.554"/>
							<polygon fill="#83BBC8" points="880.536,509.135 892.935,509.135 880.536,504.582 							"/>
						</g>
					</g>
				</g>
				<g>
					<g>
						<polygon fill="#C33A32" points="926.635,467.143 898.2,449.796 869.767,467.143 						"/>
						<polygon fill="#CD5245" points="926.635,467.143 898.2,449.796 911.817,467.143 						"/>
					</g>
					<rect x="868.768" y="466.605" fill="#73243D" width="58.867" height="3.926"/>
					<g>
						<ellipse fill="#9ECDD9" cx="898.2" cy="458.992" rx="3.558" ry="3.506"/>
						<path fill="#83BBC8" d="M895.683,456.513l5.033,4.953c-0.642,0.635-1.533,1.026-2.516,1.026c-1.966,0-3.558-1.566-3.558-3.5
							C894.642,458.023,895.041,457.146,895.683,456.513z"/>
					</g>
				</g>
			</g>
			<g>
				<g>
					<rect x="1215.512" y="449.498" fill="#F7E4BA" width="77.558" height="74.236"/>
					<rect x="1215.512" y="434.142" fill="#F7E4BA" width="77.558" height="13.331"/>
					<rect x="1215.512" y="418.788" fill="#F7E4BA" width="77.558" height="13.331"/>
				</g>
				<g>
					<g>
						<rect x="1220.618" y="438.295" fill="#007298" width="67.345" height="5.089"/>
						<polygon fill="#005E85" points="1220.618,443.384 1287.964,443.384 1220.618,438.295 						"/>
					</g>
					<g>
						<rect x="1220.618" y="422.942" fill="#007298" width="67.345" height="5.088"/>
						<polygon fill="#005E85" points="1220.618,428.03 1287.964,428.03 1220.618,422.942 						"/>
					</g>
					<g>
						<g>
							<rect x="1280.139" y="454.53" fill="#007298" width="5.072" height="8.328"/>
							<polygon fill="#005E85" points="1280.139,462.858 1285.211,462.858 1280.139,454.53 							"/>
						</g>
						<g>
							<rect x="1270.677" y="454.53" fill="#007298" width="5.073" height="8.328"/>
							<polygon fill="#005E85" points="1270.677,462.858 1275.75,462.858 1270.677,454.53 							"/>
						</g>
						<g>
							<rect x="1261.215" y="454.53" fill="#007298" width="5.073" height="8.328"/>
							<polygon fill="#005E85" points="1261.215,462.858 1266.289,462.858 1261.215,454.53 							"/>
						</g>
						<g>
							<rect x="1251.754" y="454.53" fill="#007298" width="5.074" height="8.328"/>
							<polygon fill="#005E85" points="1251.753,462.858 1256.827,462.858 1251.753,454.53 							"/>
						</g>
						<g>
							<rect x="1280.139" y="478.29" fill="#007298" width="5.072" height="8.325"/>
							<polygon fill="#005E85" points="1280.139,486.615 1285.211,486.615 1280.139,478.29 							"/>
						</g>
						<g>
							<rect x="1270.677" y="478.29" fill="#007298" width="5.073" height="8.325"/>
							<polygon fill="#005E85" points="1270.677,486.615 1275.75,486.615 1270.677,478.29 							"/>
						</g>
						<g>
							<rect x="1261.215" y="478.29" fill="#007298" width="5.073" height="8.325"/>
							<polygon fill="#005E85" points="1261.215,486.615 1266.289,486.615 1261.215,478.29 							"/>
						</g>
						<g>
							<rect x="1251.754" y="478.29" fill="#007298" width="5.074" height="8.325"/>
							<polygon fill="#005E85" points="1251.753,486.615 1256.827,486.615 1251.753,478.29 							"/>
						</g>
						<g>
							<rect x="1280.139" y="466.552" fill="#007298" width="5.072" height="8.327"/>
							<polygon fill="#005E85" points="1280.139,474.879 1285.211,474.879 1280.139,466.552 							"/>
						</g>
						<g>
							<rect x="1270.677" y="466.552" fill="#007298" width="5.073" height="8.327"/>
							<polygon fill="#005E85" points="1270.677,474.879 1275.75,474.879 1270.677,466.552 							"/>
						</g>
						<g>
							<rect x="1261.215" y="466.552" fill="#007298" width="5.073" height="8.327"/>
							<polygon fill="#005E85" points="1261.215,474.879 1266.289,474.879 1261.215,466.552 							"/>
						</g>
						<g>
							<rect x="1251.754" y="466.552" fill="#007298" width="5.074" height="8.327"/>
							<polygon fill="#005E85" points="1251.753,474.879 1256.827,474.879 1251.753,466.552 							"/>
						</g>
						<g>
							<rect x="1242.292" y="454.53" fill="#007298" width="5.075" height="8.328"/>
							<polygon fill="#005E85" points="1242.292,462.858 1247.367,462.858 1242.292,454.53 							"/>
						</g>
						<g>
							<rect x="1242.292" y="478.29" fill="#007298" width="5.075" height="8.325"/>
							<polygon fill="#005E85" points="1242.292,486.615 1247.367,486.615 1242.292,478.29 							"/>
						</g>
						<g>
							<rect x="1242.292" y="466.552" fill="#007298" width="5.075" height="8.327"/>
							<polygon fill="#005E85" points="1242.292,474.879 1247.367,474.879 1242.292,466.552 							"/>
						</g>
						<g>
							<rect x="1232.832" y="454.53" fill="#007298" width="5.073" height="8.328"/>
							<polygon fill="#005E85" points="1232.832,462.858 1237.905,462.858 1232.832,454.53 							"/>
						</g>
						<g>
							<rect x="1232.832" y="478.29" fill="#007298" width="5.073" height="8.325"/>
							<polygon fill="#005E85" points="1232.832,486.615 1237.905,486.615 1232.832,478.29 							"/>
						</g>
						<g>
							<rect x="1232.832" y="466.552" fill="#007298" width="5.073" height="8.327"/>
							<polygon fill="#005E85" points="1232.832,474.879 1237.905,474.879 1232.832,466.552 							"/>
						</g>
						<g>
							<rect x="1223.37" y="454.53" fill="#007298" width="5.073" height="8.328"/>
							<polygon fill="#005E85" points="1223.37,462.858 1228.443,462.858 1223.37,454.53 							"/>
						</g>
						<g>
							<rect x="1223.37" y="478.29" fill="#007298" width="5.073" height="8.325"/>
							<polygon fill="#005E85" points="1223.37,486.615 1228.443,486.615 1223.37,478.29 							"/>
						</g>
						<g>
							<rect x="1280.139" y="489.715" fill="#007298" width="5.072" height="8.326"/>
							<polygon fill="#005E85" points="1280.139,498.04 1285.211,498.04 1280.139,489.715 							"/>
						</g>
						<g>
							<rect x="1270.677" y="489.715" fill="#007298" width="5.073" height="8.326"/>
							<polygon fill="#005E85" points="1270.677,498.04 1275.75,498.04 1270.677,489.715 							"/>
						</g>
						<g>
							<rect x="1261.215" y="489.715" fill="#007298" width="5.073" height="8.326"/>
							<polygon fill="#005E85" points="1261.215,498.04 1266.289,498.04 1261.215,489.715 							"/>
						</g>
						<g>
							<rect x="1251.754" y="489.715" fill="#007298" width="5.074" height="8.326"/>
							<polygon fill="#005E85" points="1251.753,498.04 1256.827,498.04 1251.753,489.715 							"/>
						</g>
						<g>
							<rect x="1242.292" y="489.715" fill="#007298" width="5.075" height="8.326"/>
							<polygon fill="#005E85" points="1242.292,498.04 1247.367,498.04 1242.292,489.715 							"/>
						</g>
						<g>
							<rect x="1232.832" y="489.715" fill="#007298" width="5.073" height="8.326"/>
							<polygon fill="#005E85" points="1232.832,498.04 1237.905,498.04 1232.832,489.715 							"/>
						</g>
						<g>
							<rect x="1223.37" y="489.715" fill="#007298" width="5.073" height="8.326"/>
							<polygon fill="#005E85" points="1223.37,498.04 1228.443,498.04 1223.37,489.715 							"/>
						</g>
						<g>
							<rect x="1223.37" y="466.552" fill="#007298" width="5.073" height="8.327"/>
							<polygon fill="#005E85" points="1223.37,474.879 1228.443,474.879 1223.37,466.552 							"/>
						</g>
					</g>
				</g>
				<g>
					<rect x="1213.42" y="447.473" fill="#73243D" width="81.744" height="2.025"/>
					<rect x="1213.42" y="432.118" fill="#73243D" width="81.744" height="2.024"/>
					<g>
						<rect x="1213.42" y="416.764" fill="#73243D" width="81.744" height="2.023"/>
						<g>
							<polygon fill="#C33A32" points="1215.182,416.764 1230.505,405.45 1278.08,405.45 1293.399,416.764 							"/>
							<polygon fill="#CB4D41" points="1277.376,416.764 1268.837,405.45 1278.08,405.45 1293.399,416.764 							"/>
						</g>
					</g>
				</g>
			</g>
			<g>
				<rect x="1061.302" y="422.867" fill="#00556F" width="53.691" height="101.363"/>
				<rect x="1108.301" y="422.867" fill="#2C7188" width="3.146" height="101.363"/>
				<g>
					<path fill="#828D97" d="M1086.118,412.245c0,0.628,0.585,1.138,1.308,1.138l0,0c0.723,0,1.309-0.51,1.309-1.138v-28.899
						c0-0.628-0.585-1.137-1.309-1.137l0,0c-0.722,0-1.308,0.509-1.308,1.137V412.245z"/>
					<ellipse fill="#608085" cx="1087.49" cy="384.138" rx="3.094" ry="3.046"/>
					<g>
						<path fill="#C33A32" d="M1061.302,420.272c3.145-7.785,12.02-18.179,26.845-18.179s23.7,10.395,26.844,18.179
							L1061.302,420.272L1061.302,420.272z"/>
						<path fill="#D76A5B" d="M1086.707,402.126c0.474-0.021,0.953-0.034,1.439-0.034c14.825,0,23.7,10.395,26.844,18.179h-2.878
							C1109.071,412.743,1100.668,402.773,1086.707,402.126z"/>
						<rect x="1058.628" y="417.678" fill="#7A232E" width="59.036" height="5.188"/>
					</g>
				</g>
				<g>
					<g>
						<g>
							<rect x="1097.943" y="428.285" fill="#9ECDD9" width="12.536" height="5.661"/>
							<polygon fill="#83BBC8" points="1097.943,433.946 1110.48,433.946 1097.943,428.285 							"/>
						</g>
						<g>
							<rect x="1081.879" y="428.285" fill="#9ECDD9" width="12.536" height="5.661"/>
							<polygon fill="#83BBC8" points="1081.879,433.946 1094.415,433.946 1081.879,428.285 							"/>
						</g>
						<g>
							<rect x="1065.814" y="428.285" fill="#9ECDD9" width="12.536" height="5.661"/>
							<polygon fill="#83BBC8" points="1065.814,433.946 1078.35,433.946 1065.814,428.285 							"/>
						</g>
						<g>
							<rect x="1097.943" y="438.42" fill="#9ECDD9" width="12.536" height="5.661"/>
							<polygon fill="#83BBC8" points="1097.943,444.082 1110.48,444.082 1097.943,438.42 							"/>
						</g>
						<g>
							<rect x="1081.879" y="438.42" fill="#9ECDD9" width="12.536" height="5.661"/>
							<polygon fill="#83BBC8" points="1081.879,444.082 1094.415,444.082 1081.879,438.42 							"/>
						</g>
						<g>
							<rect x="1065.814" y="438.42" fill="#9ECDD9" width="12.536" height="5.661"/>
							<polygon fill="#83BBC8" points="1065.814,444.082 1078.35,444.082 1065.814,438.42 							"/>
						</g>
						<g>
							<rect x="1097.943" y="448.557" fill="#9ECDD9" width="12.536" height="5.663"/>
							<polygon fill="#83BBC8" points="1097.943,454.22 1110.48,454.22 1097.943,448.557 							"/>
						</g>
						<g>
							<rect x="1081.879" y="448.557" fill="#9ECDD9" width="12.536" height="5.663"/>
							<polygon fill="#83BBC8" points="1081.879,454.22 1094.415,454.22 1081.879,448.557 							"/>
						</g>
						<g>
							<rect x="1065.814" y="448.557" fill="#9ECDD9" width="12.536" height="5.663"/>
							<polygon fill="#83BBC8" points="1065.814,454.22 1078.35,454.22 1065.814,448.557 							"/>
						</g>
						<g>
							<rect x="1097.943" y="458.692" fill="#9ECDD9" width="12.536" height="5.662"/>
							<polygon fill="#83BBC8" points="1097.943,464.354 1110.48,464.354 1097.943,458.692 							"/>
						</g>
						<g>
							<rect x="1081.879" y="458.692" fill="#9ECDD9" width="12.536" height="5.662"/>
							<polygon fill="#83BBC8" points="1081.879,464.354 1094.415,464.354 1081.879,458.692 							"/>
						</g>
						<g>
							<rect x="1065.814" y="458.692" fill="#9ECDD9" width="12.536" height="5.662"/>
							<polygon fill="#83BBC8" points="1065.814,464.354 1078.35,464.354 1065.814,458.692 							"/>
						</g>
					</g>
					<g>
						<g>
							<rect x="1097.943" y="495.505" fill="#9ECDD9" width="12.536" height="5.661"/>
							<polygon fill="#83BBC8" points="1097.943,501.166 1110.48,501.166 1097.943,495.505 							"/>
						</g>
						<g>
							<rect x="1081.879" y="495.505" fill="#9ECDD9" width="12.536" height="5.661"/>
							<polygon fill="#83BBC8" points="1081.879,501.166 1094.415,501.166 1081.879,495.505 							"/>
						</g>
						<g>
							<rect x="1065.814" y="495.505" fill="#9ECDD9" width="12.536" height="5.661"/>
							<polygon fill="#83BBC8" points="1065.814,501.166 1078.35,501.166 1065.814,495.505 							"/>
						</g>
						<g>
							<rect x="1097.943" y="505.64" fill="#9ECDD9" width="12.536" height="5.662"/>
							<polygon fill="#83BBC8" points="1097.943,511.303 1110.48,511.303 1097.943,505.64 							"/>
						</g>
						<g>
							<rect x="1081.879" y="505.64" fill="#9ECDD9" width="12.536" height="5.662"/>
							<polygon fill="#83BBC8" points="1081.879,511.303 1094.415,511.303 1081.879,505.64 							"/>
						</g>
						<g>
							<rect x="1065.814" y="505.64" fill="#9ECDD9" width="12.536" height="5.662"/>
							<polygon fill="#83BBC8" points="1065.814,511.303 1078.35,511.303 1065.814,505.64 							"/>
						</g>
					</g>
				</g>
				<g>
					<rect x="1058.628" y="468.194" fill="#73243D" width="59.036" height="1.772"/>
					<g>
						<g>
							<polygon fill="#F8F8F8" points="1104.212,491.033 1087.491,485.119 1070.768,491.033 1070.768,469.965 1104.212,469.965 
															"/>
						</g>
					</g>
				</g>
			</g>
			<g>
				<rect x="905.094" y="389.312" fill="#9FAAB3" width="77.073" height="131.91"/>
				<g>
					<g>
						<g>
							<rect x="968.975" y="398.6" fill="#007298" width="6.94" height="11.39"/>
							<polygon fill="#005E85" points="968.975,409.99 975.915,409.99 968.975,398.6 							"/>
						</g>
						<g>
							<rect x="949.765" y="398.6" fill="#007298" width="6.939" height="11.39"/>
							<polygon fill="#005E85" points="949.765,409.99 956.705,409.99 949.765,398.6 							"/>
						</g>
						<g>
							<rect x="930.557" y="398.6" fill="#007298" width="6.94" height="11.39"/>
							<polygon fill="#005E85" points="930.557,409.99 937.497,409.99 930.557,398.6 							"/>
						</g>
						<g>
							<rect x="911.346" y="398.6" fill="#007298" width="6.939" height="11.39"/>
							<polygon fill="#005E85" points="911.346,409.99 918.285,409.99 911.346,398.6 							"/>
						</g>
						<g>
							<rect x="968.975" y="415.937" fill="#007298" width="6.94" height="11.389"/>
							<polygon fill="#005E85" points="968.975,427.326 975.915,427.326 968.975,415.937 							"/>
						</g>
						<g>
							<rect x="949.765" y="415.937" fill="#007298" width="6.939" height="11.389"/>
							<polygon fill="#005E85" points="949.765,427.326 956.705,427.326 949.765,415.937 							"/>
						</g>
						<g>
							<rect x="930.557" y="415.937" fill="#007298" width="6.94" height="11.389"/>
							<polygon fill="#005E85" points="930.557,427.326 937.497,427.326 930.557,415.937 							"/>
						</g>
						<g>
							<rect x="911.346" y="415.937" fill="#007298" width="6.939" height="11.389"/>
							<polygon fill="#005E85" points="911.346,427.326 918.285,427.326 911.346,415.937 							"/>
						</g>
						<g>
							<rect x="968.975" y="433.271" fill="#007298" width="6.94" height="11.39"/>
							<polygon fill="#005E85" points="968.975,444.662 975.915,444.662 968.975,433.271 							"/>
						</g>
						<g>
							<rect x="949.765" y="433.271" fill="#007298" width="6.939" height="11.39"/>
							<polygon fill="#005E85" points="949.765,444.662 956.705,444.662 949.765,433.271 							"/>
						</g>
						<g>
							<rect x="930.557" y="433.271" fill="#007298" width="6.94" height="11.39"/>
							<polygon fill="#005E85" points="930.557,444.662 937.497,444.662 930.557,433.271 							"/>
						</g>
						<g>
							<rect x="911.346" y="433.271" fill="#007298" width="6.939" height="11.39"/>
							<polygon fill="#005E85" points="911.346,444.662 918.285,444.662 911.346,433.271 							"/>
						</g>
					</g>
					<g>
						<g>
							<rect x="968.975" y="450.609" fill="#007298" width="6.94" height="11.389"/>
							<polygon fill="#005E85" points="968.975,461.997 975.915,461.997 968.975,450.609 							"/>
						</g>
						<g>
							<rect x="949.765" y="450.609" fill="#007298" width="6.939" height="11.389"/>
							<polygon fill="#005E85" points="949.765,461.997 956.705,461.997 949.765,450.609 							"/>
						</g>
						<g>
							<rect x="930.557" y="450.609" fill="#007298" width="6.94" height="11.389"/>
							<polygon fill="#005E85" points="930.557,461.997 937.497,461.997 930.557,450.609 							"/>
						</g>
						<g>
							<rect x="911.346" y="450.609" fill="#007298" width="6.939" height="11.389"/>
							<polygon fill="#005E85" points="911.346,461.997 918.285,461.997 911.346,450.609 							"/>
						</g>
						<g>
							<rect x="968.975" y="467.942" fill="#007298" width="6.94" height="11.391"/>
							<polygon fill="#005E85" points="968.975,479.333 975.915,479.333 968.975,467.942 							"/>
						</g>
						<g>
							<rect x="949.765" y="467.942" fill="#007298" width="6.939" height="11.391"/>
							<polygon fill="#005E85" points="949.765,479.333 956.705,479.333 949.765,467.942 							"/>
						</g>
						<g>
							<rect x="930.557" y="467.942" fill="#007298" width="6.94" height="11.391"/>
							<polygon fill="#005E85" points="930.557,479.333 937.497,479.333 930.557,467.942 							"/>
						</g>
						<g>
							<rect x="911.346" y="467.942" fill="#007298" width="6.939" height="11.391"/>
							<polygon fill="#005E85" points="911.346,479.333 918.285,479.333 911.346,467.942 							"/>
						</g>
						<g>
							<rect x="968.975" y="485.276" fill="#007298" width="6.94" height="11.391"/>
							<polygon fill="#005E85" points="968.975,496.667 975.915,496.667 968.975,485.276 							"/>
						</g>
						<g>
							<rect x="949.765" y="485.276" fill="#007298" width="6.939" height="11.391"/>
							<polygon fill="#005E85" points="949.765,496.667 956.705,496.667 949.765,485.276 							"/>
						</g>
						<g>
							<rect x="930.557" y="485.276" fill="#007298" width="6.94" height="11.391"/>
							<polygon fill="#005E85" points="930.557,496.667 937.497,496.667 930.557,485.276 							"/>
						</g>
						<g>
							<rect x="911.346" y="485.276" fill="#007298" width="6.939" height="11.391"/>
							<polygon fill="#005E85" points="911.346,496.667 918.285,496.667 911.346,485.276 							"/>
						</g>
					</g>
				</g>
				<g>
					<rect x="902.485" y="446.899" fill="#608085" width="83.858" height="1.469"/>
					<g>
						<rect x="902.485" y="384.971" fill="#608085" width="83.858" height="4.341"/>
						<path fill="#9FAAB3" d="M917.726,371.683c3.723-10.562,13.911-18.147,25.903-18.147c11.996,0,22.184,7.585,25.904,18.147
							h12.633v13.287h-77.073v-13.287H917.726z"/>
						<path fill="#608085" d="M923.076,380.531c0-11.176,9.202-20.236,20.553-20.236c11.354,0,20.555,9.06,20.555,20.236"/>
					</g>
				</g>
				<g>
					<rect x="977.988" y="371.683" fill="#828D97" width="4.178" height="13.287"/>
					<rect x="977.988" y="389.312" fill="#828D97" width="4.178" height="57.588"/>
					<rect x="977.988" y="448.368" fill="#828D97" width="4.178" height="72.854"/>
				</g>
			</g>
			<g>
				<g>
					<g>
						<rect x="1118.991" y="363.052" fill="#828D97" width="72.565" height="18.149"/>
						<rect x="1140.418" y="353.512" fill="#828D97" width="29.714" height="13.127"/>
						<path fill="#828D97" d="M1153.903,358.939c0,0.628,0.585,1.137,1.308,1.137l0,0c0.724,0,1.31-0.508,1.31-1.137V330.04
							c0-0.629-0.586-1.138-1.31-1.138l0,0c-0.722,0-1.308,0.509-1.308,1.138V358.939z"/>
						<ellipse fill="#608085" cx="1155.274" cy="330.831" rx="3.094" ry="3.047"/>
					</g>
					<rect x="1112.696" y="379.04" fill="#9FAAB3" width="85.156" height="142.11"/>
				</g>
				<g>
					<g>
						<g>
							<rect x="1175.051" y="369.452" fill="#007298" width="9.905" height="4.962"/>
							<polygon fill="#005E85" points="1175.051,374.414 1184.956,374.414 1175.051,369.452 							"/>
						</g>
						<g>
							<rect x="1162.359" y="369.452" fill="#007298" width="9.905" height="4.962"/>
							<polygon fill="#005E85" points="1162.359,374.414 1172.264,374.414 1162.359,369.452 							"/>
						</g>
						<g>
							<rect x="1149.667" y="369.452" fill="#007298" width="9.905" height="4.962"/>
							<polygon fill="#005E85" points="1149.667,374.414 1159.571,374.414 1149.667,369.452 							"/>
						</g>
						<g>
							<rect x="1136.49" y="369.452" fill="#007298" width="9.905" height="4.962"/>
							<polygon fill="#005E85" points="1136.49,374.414 1146.395,374.414 1136.49,369.452 							"/>
						</g>
						<g>
							<rect x="1123.798" y="369.452" fill="#007298" width="9.905" height="4.962"/>
							<polygon fill="#005E85" points="1123.798,374.414 1133.703,374.414 1123.798,369.452 							"/>
						</g>
					</g>
					<g>
						<rect x="1132.311" y="498.091" fill="#007298" width="46.118" height="23.099"/>
						<polygon fill="#005E85" points="1132.311,521.189 1178.429,521.189 1132.311,498.091 						"/>
					</g>
					<g>
						<g>
							<rect x="1157.175" y="396.049" fill="#007298" width="9.903" height="4.962"/>
							<polygon fill="#005E85" points="1157.175,401.011 1167.079,401.011 1157.175,396.049 							"/>
						</g>
						<g>
							<rect x="1169.867" y="413.833" fill="#007298" width="9.905" height="4.962"/>
							<polygon fill="#005E85" points="1169.867,418.795 1179.772,418.795 1169.867,413.833 							"/>
						</g>
						<g>
							<rect x="1143.998" y="396.049" fill="#007298" width="9.905" height="4.962"/>
							<polygon fill="#005E85" points="1143.998,401.011 1153.903,401.011 1143.998,396.049 							"/>
						</g>
						<g>
							<rect x="1131.306" y="396.049" fill="#007298" width="9.905" height="4.962"/>
							<polygon fill="#005E85" points="1131.306,401.011 1141.211,401.011 1131.306,396.049 							"/>
						</g>
						<g>
							<rect x="1118.613" y="396.049" fill="#007298" width="9.905" height="4.962"/>
							<polygon fill="#005E85" points="1118.613,401.011 1128.519,401.011 1118.613,396.049 							"/>
						</g>
						<g>
							<rect x="1182.559" y="386.609" fill="#007298" width="9.904" height="4.963"/>
							<polygon fill="#005E85" points="1182.559,391.572 1192.464,391.572 1182.559,386.609 							"/>
						</g>
						<g>
							<rect x="1169.867" y="386.609" fill="#007298" width="9.905" height="4.963"/>
							<polygon fill="#005E85" points="1169.867,391.572 1179.772,391.572 1169.867,386.609 							"/>
						</g>
						<g>
							<rect x="1157.175" y="386.609" fill="#007298" width="9.903" height="4.963"/>
							<polygon fill="#005E85" points="1157.175,391.572 1167.079,391.572 1157.175,386.609 							"/>
						</g>
						<g>
							<rect x="1182.559" y="395.493" fill="#007298" width="9.904" height="4.961"/>
							<polygon fill="#005E85" points="1182.559,400.454 1192.464,400.454 1182.559,395.493 							"/>
						</g>
						<g>
							<rect x="1169.867" y="395.493" fill="#007298" width="9.905" height="4.961"/>
							<polygon fill="#005E85" points="1169.867,400.454 1179.772,400.454 1169.867,395.493 							"/>
						</g>
						<g>
							<rect x="1182.559" y="404.375" fill="#007298" width="9.904" height="4.961"/>
							<polygon fill="#005E85" points="1182.559,409.336 1192.464,409.336 1182.559,404.375 							"/>
						</g>
						<g>
							<rect x="1169.867" y="404.375" fill="#007298" width="9.905" height="4.961"/>
							<polygon fill="#005E85" points="1169.867,409.336 1179.772,409.336 1169.867,404.375 							"/>
						</g>
						<g>
							<rect x="1157.175" y="404.375" fill="#007298" width="9.903" height="4.961"/>
							<polygon fill="#005E85" points="1157.175,409.336 1167.079,409.336 1157.175,404.375 							"/>
						</g>
						<g>
							<rect x="1182.559" y="413.259" fill="#007298" width="9.904" height="4.961"/>
							<polygon fill="#005E85" points="1182.559,418.22 1192.464,418.22 1182.559,413.259 							"/>
						</g>
						<g>
							<rect x="1157.175" y="413.259" fill="#007298" width="9.903" height="4.961"/>
							<polygon fill="#005E85" points="1157.175,418.22 1167.079,418.22 1157.175,413.259 							"/>
						</g>
						<g>
							<rect x="1143.998" y="386.609" fill="#007298" width="9.905" height="4.963"/>
							<polygon fill="#005E85" points="1143.998,391.572 1153.903,391.572 1143.998,386.609 							"/>
						</g>
						<g>
							<rect x="1131.306" y="386.609" fill="#007298" width="9.905" height="4.963"/>
							<polygon fill="#005E85" points="1131.306,391.572 1141.211,391.572 1131.306,386.609 							"/>
						</g>
						<g>
							<rect x="1118.613" y="386.609" fill="#007298" width="9.905" height="4.963"/>
							<polygon fill="#005E85" points="1118.613,391.572 1128.519,391.572 1118.613,386.609 							"/>
						</g>
						<g>
							<rect x="1143.998" y="404.375" fill="#007298" width="9.905" height="4.961"/>
							<polygon fill="#005E85" points="1143.998,409.336 1153.903,409.336 1143.998,404.375 							"/>
						</g>
						<g>
							<rect x="1131.306" y="404.375" fill="#007298" width="9.905" height="4.961"/>
							<polygon fill="#005E85" points="1131.306,409.336 1141.211,409.336 1131.306,404.375 							"/>
						</g>
						<g>
							<rect x="1118.613" y="404.375" fill="#007298" width="9.905" height="4.961"/>
							<polygon fill="#005E85" points="1118.613,409.336 1128.519,409.336 1118.613,404.375 							"/>
						</g>
						<g>
							<rect x="1143.998" y="413.259" fill="#007298" width="9.905" height="4.961"/>
							<polygon fill="#005E85" points="1143.998,418.22 1153.903,418.22 1143.998,413.259 							"/>
						</g>
						<g>
							<rect x="1131.306" y="413.259" fill="#007298" width="9.905" height="4.961"/>
							<polygon fill="#005E85" points="1131.306,418.22 1141.211,418.22 1131.306,413.259 							"/>
						</g>
						<g>
							<rect x="1118.613" y="413.259" fill="#007298" width="9.905" height="4.961"/>
							<polygon fill="#005E85" points="1118.613,418.22 1128.519,418.22 1118.613,413.259 							"/>
						</g>
						<g>
							<g>
								<rect x="1182.559" y="423.345" fill="#007298" width="9.904" height="4.962"/>
								<polygon fill="#005E85" points="1182.559,428.307 1192.464,428.307 1182.559,423.345 								"/>
							</g>
							<g>
								<rect x="1169.867" y="423.345" fill="#007298" width="9.905" height="4.962"/>
								<polygon fill="#005E85" points="1169.867,428.307 1179.772,428.307 1169.867,423.345 								"/>
							</g>
							<g>
								<rect x="1157.175" y="423.345" fill="#007298" width="9.903" height="4.962"/>
								<polygon fill="#005E85" points="1157.175,428.307 1167.079,428.307 1157.175,423.345 								"/>
							</g>
							<g>
								<rect x="1182.559" y="432.229" fill="#007298" width="9.904" height="4.96"/>
								<polygon fill="#005E85" points="1182.559,437.189 1192.464,437.189 1182.559,432.229 								"/>
							</g>
							<g>
								<rect x="1169.867" y="432.229" fill="#007298" width="9.905" height="4.96"/>
								<polygon fill="#005E85" points="1169.867,437.189 1179.772,437.189 1169.867,432.229 								"/>
							</g>
							<g>
								<rect x="1157.175" y="432.229" fill="#007298" width="9.903" height="4.96"/>
								<polygon fill="#005E85" points="1157.175,437.189 1167.079,437.189 1157.175,432.229 								"/>
							</g>
							<g>
								<rect x="1182.559" y="441.111" fill="#007298" width="9.904" height="4.963"/>
								<polygon fill="#005E85" points="1182.559,446.074 1192.464,446.074 1182.559,441.111 								"/>
							</g>
							<g>
								<rect x="1169.867" y="441.111" fill="#007298" width="9.905" height="4.963"/>
								<polygon fill="#005E85" points="1169.867,446.074 1179.772,446.074 1169.867,441.111 								"/>
							</g>
							<g>
								<rect x="1157.175" y="441.111" fill="#007298" width="9.903" height="4.963"/>
								<polygon fill="#005E85" points="1157.175,446.074 1167.079,446.074 1157.175,441.111 								"/>
							</g>
							<g>
								<rect x="1182.559" y="449.994" fill="#007298" width="9.904" height="4.963"/>
								<polygon fill="#005E85" points="1182.559,454.957 1192.464,454.957 1182.559,449.994 								"/>
							</g>
							<g>
								<rect x="1169.867" y="449.994" fill="#007298" width="9.905" height="4.963"/>
								<polygon fill="#005E85" points="1169.867,454.957 1179.772,454.957 1169.867,449.994 								"/>
							</g>
							<g>
								<rect x="1157.175" y="449.994" fill="#007298" width="9.903" height="4.963"/>
								<polygon fill="#005E85" points="1157.175,454.957 1167.079,454.957 1157.175,449.994 								"/>
							</g>
						</g>
						<g>
							<g>
								<rect x="1143.998" y="423.345" fill="#007298" width="9.905" height="4.962"/>
								<polygon fill="#005E85" points="1143.998,428.307 1153.903,428.307 1143.998,423.345 								"/>
							</g>
							<g>
								<rect x="1131.306" y="423.345" fill="#007298" width="9.905" height="4.962"/>
								<polygon fill="#005E85" points="1131.306,428.307 1141.211,428.307 1131.306,423.345 								"/>
							</g>
							<g>
								<rect x="1118.613" y="423.345" fill="#007298" width="9.905" height="4.962"/>
								<polygon fill="#005E85" points="1118.613,428.307 1128.519,428.307 1118.613,423.345 								"/>
							</g>
							<g>
								<rect x="1143.998" y="432.229" fill="#007298" width="9.905" height="4.96"/>
								<polygon fill="#005E85" points="1143.998,437.189 1153.903,437.189 1143.998,432.229 								"/>
							</g>
							<g>
								<rect x="1131.306" y="432.229" fill="#007298" width="9.905" height="4.96"/>
								<polygon fill="#005E85" points="1131.306,437.189 1141.211,437.189 1131.306,432.229 								"/>
							</g>
							<g>
								<rect x="1118.613" y="432.229" fill="#007298" width="9.905" height="4.96"/>
								<polygon fill="#005E85" points="1118.613,437.189 1128.519,437.189 1118.613,432.229 								"/>
							</g>
							<g>
								<rect x="1143.998" y="441.111" fill="#007298" width="9.905" height="4.963"/>
								<polygon fill="#005E85" points="1143.998,446.074 1153.903,446.074 1143.998,441.111 								"/>
							</g>
							<g>
								<rect x="1131.306" y="441.111" fill="#007298" width="9.905" height="4.963"/>
								<polygon fill="#005E85" points="1131.306,446.074 1141.211,446.074 1131.306,441.111 								"/>
							</g>
							<g>
								<rect x="1118.613" y="441.111" fill="#007298" width="9.905" height="4.963"/>
								<polygon fill="#005E85" points="1118.613,446.074 1128.519,446.074 1118.613,441.111 								"/>
							</g>
							<g>
								<rect x="1143.998" y="449.994" fill="#007298" width="9.905" height="4.963"/>
								<polygon fill="#005E85" points="1143.998,454.957 1153.903,454.957 1143.998,449.994 								"/>
							</g>
							<g>
								<rect x="1131.306" y="449.994" fill="#007298" width="9.905" height="4.963"/>
								<polygon fill="#005E85" points="1131.306,454.957 1141.211,454.957 1131.306,449.994 								"/>
							</g>
							<g>
								<rect x="1118.613" y="449.994" fill="#007298" width="9.905" height="4.963"/>
								<polygon fill="#005E85" points="1118.613,454.957 1128.519,454.957 1118.613,449.994 								"/>
							</g>
						</g>
						<g>
							<g>
								<rect x="1182.559" y="460.081" fill="#007298" width="9.904" height="4.962"/>
								<polygon fill="#005E85" points="1182.559,465.043 1192.464,465.043 1182.559,460.081 								"/>
							</g>
							<g>
								<rect x="1169.867" y="460.081" fill="#007298" width="9.905" height="4.962"/>
								<polygon fill="#005E85" points="1169.867,465.043 1179.772,465.043 1169.867,460.081 								"/>
							</g>
							<g>
								<rect x="1157.175" y="460.081" fill="#007298" width="9.903" height="4.962"/>
								<polygon fill="#005E85" points="1157.175,465.043 1167.079,465.043 1157.175,460.081 								"/>
							</g>
							<g>
								<rect x="1182.559" y="468.964" fill="#007298" width="9.904" height="4.961"/>
								<polygon fill="#005E85" points="1182.559,473.924 1192.464,473.924 1182.559,468.964 								"/>
							</g>
							<g>
								<rect x="1169.867" y="468.964" fill="#007298" width="9.905" height="4.961"/>
								<polygon fill="#005E85" points="1169.867,473.924 1179.772,473.924 1169.867,468.964 								"/>
							</g>
							<g>
								<rect x="1157.175" y="468.964" fill="#007298" width="9.903" height="4.961"/>
								<polygon fill="#005E85" points="1157.175,473.924 1167.079,473.924 1157.175,468.964 								"/>
							</g>
							<g>
								<rect x="1182.559" y="477.846" fill="#007298" width="9.904" height="4.963"/>
								<polygon fill="#005E85" points="1182.559,482.809 1192.464,482.809 1182.559,477.846 								"/>
							</g>
							<g>
								<rect x="1169.867" y="477.846" fill="#007298" width="9.905" height="4.963"/>
								<polygon fill="#005E85" points="1169.867,482.809 1179.772,482.809 1169.867,477.846 								"/>
							</g>
							<g>
								<rect x="1157.175" y="477.846" fill="#007298" width="9.903" height="4.963"/>
								<polygon fill="#005E85" points="1157.175,482.809 1167.079,482.809 1157.175,477.846 								"/>
							</g>
							<g>
								<rect x="1182.559" y="486.728" fill="#007298" width="9.904" height="4.964"/>
								<polygon fill="#005E85" points="1182.559,491.692 1192.464,491.692 1182.559,486.728 								"/>
							</g>
							<g>
								<rect x="1169.867" y="486.728" fill="#007298" width="9.905" height="4.964"/>
								<polygon fill="#005E85" points="1169.867,491.692 1179.772,491.692 1169.867,486.728 								"/>
							</g>
							<g>
								<rect x="1157.175" y="486.728" fill="#007298" width="9.903" height="4.964"/>
								<polygon fill="#005E85" points="1157.175,491.692 1167.079,491.692 1157.175,486.728 								"/>
							</g>
						</g>
						<g>
							<g>
								<rect x="1143.998" y="460.081" fill="#007298" width="9.905" height="4.962"/>
								<polygon fill="#005E85" points="1143.998,465.043 1153.903,465.043 1143.998,460.081 								"/>
							</g>
							<g>
								<rect x="1131.306" y="460.081" fill="#007298" width="9.905" height="4.962"/>
								<polygon fill="#005E85" points="1131.306,465.043 1141.211,465.043 1131.306,460.081 								"/>
							</g>
							<g>
								<rect x="1118.613" y="460.081" fill="#007298" width="9.905" height="4.962"/>
								<polygon fill="#005E85" points="1118.613,465.043 1128.519,465.043 1118.613,460.081 								"/>
							</g>
							<g>
								<rect x="1143.998" y="468.964" fill="#007298" width="9.905" height="4.961"/>
								<polygon fill="#005E85" points="1143.998,473.924 1153.903,473.924 1143.998,468.964 								"/>
							</g>
							<g>
								<rect x="1131.306" y="468.964" fill="#007298" width="9.905" height="4.961"/>
								<polygon fill="#005E85" points="1131.306,473.924 1141.211,473.924 1131.306,468.964 								"/>
							</g>
							<g>
								<rect x="1118.613" y="468.964" fill="#007298" width="9.905" height="4.961"/>
								<polygon fill="#005E85" points="1118.613,473.924 1128.519,473.924 1118.613,468.964 								"/>
							</g>
							<g>
								<rect x="1143.998" y="477.846" fill="#007298" width="9.905" height="4.963"/>
								<polygon fill="#005E85" points="1143.998,482.809 1153.903,482.809 1143.998,477.846 								"/>
							</g>
							<g>
								<rect x="1131.306" y="477.846" fill="#007298" width="9.905" height="4.963"/>
								<polygon fill="#005E85" points="1131.306,482.809 1141.211,482.809 1131.306,477.846 								"/>
							</g>
							<g>
								<rect x="1118.613" y="477.846" fill="#007298" width="9.905" height="4.963"/>
								<polygon fill="#005E85" points="1118.613,482.809 1128.519,482.809 1118.613,477.846 								"/>
							</g>
							<g>
								<rect x="1143.998" y="486.728" fill="#007298" width="9.905" height="4.964"/>
								<polygon fill="#005E85" points="1143.998,491.692 1153.903,491.692 1143.998,486.728 								"/>
							</g>
							<g>
								<rect x="1131.306" y="486.728" fill="#007298" width="9.905" height="4.964"/>
								<polygon fill="#005E85" points="1131.306,491.692 1141.211,491.692 1131.306,486.728 								"/>
							</g>
							<g>
								<rect x="1118.613" y="486.728" fill="#007298" width="9.905" height="4.964"/>
								<polygon fill="#005E85" points="1118.613,491.692 1128.519,491.692 1118.613,486.728 								"/>
							</g>
						</g>
					</g>
				</g>
				<g>
					<g>
						<g>
							<path fill="#24BC7C" d="M1182.043,521.222c0,0-3.264-8.249,6.277-11.247c9.538,2.998,6.276,11.247,6.276,11.247"/>
						</g>
						<g opacity="0.1">
							<path fill="#0B0C0C" d="M1194.596,521.222c0,0,3.262-8.249-6.277-11.247v11.247"/>
						</g>
					</g>
					<g>
						<g>
							<path fill="#24BC7C" d="M1115.254,521.222c0,0-3.264-8.249,6.277-11.247c9.538,2.998,6.275,11.247,6.275,11.247"/>
						</g>
						<g opacity="0.1">
							<path fill="#0B0C0C" d="M1127.806,521.222c0,0,3.264-8.249-6.276-11.247v11.247"/>
						</g>
					</g>
				</g>
			</g>
			<g>
				<g>
					<rect x="777.392" y="474.263" fill="#C33A32" width="59.984" height="43.87"/>
					<g>
						<path fill="#980000" d="M839.209,472.86v3.412c0,1.573-1.296,2.848-2.894,2.848c-1.598,0-2.894-1.274-2.894-2.848v-3.412
							H839.209z"/>
						<path fill="#B6BBBF" d="M833.422,472.86v3.412c0,1.573-1.296,2.848-2.893,2.848c-1.598,0-2.894-1.274-2.894-2.848v-3.412
							H833.422z"/>
						<path fill="#980000" d="M827.635,472.86v3.412c0,1.573-1.296,2.848-2.893,2.848c-1.598,0-2.894-1.274-2.894-2.848v-3.412
							H827.635z"/>
						<path fill="#B6BBBF" d="M821.849,472.86v3.412c0,1.573-1.294,2.848-2.892,2.848s-2.894-1.274-2.894-2.848v-3.412H821.849z"/>
						<path fill="#980000" d="M816.063,472.86v3.412c0,1.573-1.296,2.848-2.894,2.848c-1.597,0-2.894-1.274-2.894-2.848v-3.412
							H816.063z"/>
						<path fill="#B6BBBF" d="M810.276,472.86v3.412c0,1.573-1.296,2.848-2.893,2.848s-2.894-1.274-2.894-2.848v-3.412H810.276z"/>
						<path fill="#980000" d="M804.489,472.86v3.412c0,1.573-1.294,2.848-2.893,2.848c-1.596,0-2.892-1.274-2.892-2.848v-3.412
							H804.489z"/>
						<path fill="#B6BBBF" d="M798.705,472.86v3.412c0,1.573-1.296,2.848-2.895,2.848c-1.597,0-2.894-1.274-2.894-2.848v-3.412
							H798.705z"/>
						<path fill="#980000" d="M792.916,472.86v3.412c0,1.573-1.293,2.848-2.891,2.848c-1.598,0-2.894-1.274-2.894-2.848v-3.412
							H792.916z"/>
						<path fill="#B6BBBF" d="M787.132,472.86v3.412c0,1.573-1.297,2.848-2.893,2.848c-1.597,0-2.896-1.274-2.896-2.848v-3.412
							H787.132z"/>
						<path fill="#980000" d="M781.343,472.86v3.412c0,1.573-1.293,2.848-2.893,2.848c-1.594,0-2.892-1.274-2.892-2.848v-3.412
							H781.343z"/>
						<polygon fill="#C33A32" points="831.92,462.254 839.209,472.858 833.422,472.858 827.135,462.254 						"/>
						<polygon fill="#E5E5E7" points="827.135,462.254 833.422,472.858 827.635,472.858 822.6,462.254 						"/>
						<polygon fill="#C33A32" points="822.85,462.254 827.635,472.858 821.849,472.858 817.816,462.254 						"/>
						<polygon fill="#E5E5E7" points="817.816,462.254 821.849,472.858 816.063,472.858 814.022,462.254 						"/>
						<polygon fill="#C33A32" points="814.022,462.254 816.063,472.858 810.276,472.858 809.75,462.254 						"/>
						<polygon fill="#E5E5E7" points="809.75,462.254 810.276,472.858 804.489,472.858 805.312,462.254 						"/>
						<polygon fill="#C33A32" points="805.304,462.254 804.489,472.858 798.705,472.858 800.912,462.254 						"/>
						<polygon fill="#E5E5E7" points="800.912,462.254 798.705,472.858 792.916,472.858 796.496,462.254 						"/>
						<polygon fill="#C33A32" points="796.917,462.254 792.916,472.858 787.132,472.858 792.023,462.254 						"/>
						<polygon fill="#E5E5E7" points="792.023,462.254 787.132,472.858 781.343,472.858 786.891,462.254 						"/>
						<polygon fill="#C33A32" points="786.891,462.254 781.343,472.858 775.559,472.858 781.548,462.254 						"/>
					</g>
					
						<rect x="781.191" y="493.294" fill="#A10808" stroke="#980000" stroke-width="0.8594" stroke-miterlimit="10" width="15.947" height="24.839"/>
					<rect x="772.12" y="517.696" fill="#A10808" width="70.527" height="3.526"/>
					<rect x="797.581" y="513.998" fill="#A10808" width="39.795" height="1.763"/>
					<g>
						<path fill="#83BBC8" d="M790.208,487.009v-5.296c3.726,0.16,7.373,1.175,7.373,3.202v2.095h-7.373V487.009z"/>
						<path fill="#83BBC8" d="M788.12,487.009h-7.374v-2.095c0-2.027,3.648-3.04,7.374-3.202V487.009z"/>
						<rect x="780.746" y="487.812" fill="#83BBC8" width="7.374" height="3.607"/>
						<rect x="790.208" y="487.812" fill="#83BBC8" width="7.373" height="3.607"/>
					</g>
					<path fill="#B6BBBF" d="M794.057,505.383c0,0.443,0.369,0.804,0.819,0.804c0.452,0,0.816-0.361,0.816-0.804
						c0-0.447-0.364-0.806-0.816-0.806C794.426,504.578,794.057,504.936,794.057,505.383z"/>
				</g>
				<g>
					<g>
						<rect x="806.389" y="486.373" fill="#9ECDD9" width="28.682" height="24.93"/>
						<polygon fill="#83BBC8" points="806.389,511.303 835.071,511.303 806.389,486.373 						"/>
					</g>
				</g>
			</g>
		</g>
		<g>
			<rect x="683.39" y="521.222" fill="#EFEDED" width="788.667" height="13.564"/>
			<polygon fill="#7E8A8A" points="1472.056,531.974 1472.056,543.128 1472.056,554.284 683.39,554.284 683.39,543.128 
				683.39,531.974 			"/>
		</g>
		<g>
			<g>
				<rect x="1209.014" y="511.003" fill="#B66B56" width="2.266" height="12.402"/>
				<path fill="#24BC7C" d="M1201.208,491.255c0-4.862,4.001-8.802,8.937-8.802c4.939,0,8.94,3.94,8.94,8.802v13.149
					c0,4.863-4.001,8.803-8.94,8.803c-4.936,0-8.937-3.94-8.937-8.803V491.255z"/>
				<path opacity="0.1" fill="#0B0C0C" enable-background="new    " d="M1219.085,491.255v13.149c0,4.863-4.001,8.803-8.94,8.803
					v-30.754C1215.084,482.453,1219.085,486.392,1219.085,491.255z"/>
			</g>
			<g>
				<rect x="998.428" y="512.294" fill="#B66B56" width="2.265" height="12.402"/>
				<path fill="#24BC7C" d="M990.622,492.546c0-4.861,4.001-8.8,8.938-8.8c4.938,0,8.939,3.939,8.939,8.8v13.149
					c0,4.863-4.001,8.804-8.939,8.804c-4.937,0-8.938-3.941-8.938-8.804V492.546z"/>
				<path opacity="0.1" fill="#0B0C0C" enable-background="new    " d="M1008.499,492.546v13.149c0,4.863-4.001,8.804-8.939,8.804
					v-30.753C1004.498,483.746,1008.499,487.685,1008.499,492.546z"/>
			</g>
			<g>
				<rect x="852.214" y="512.294" fill="#B66B56" width="2.265" height="12.402"/>
				<path fill="#24BC7C" d="M844.408,492.546c0-4.861,4.002-8.8,8.938-8.8c4.938,0,8.938,3.939,8.938,8.8v13.149
					c0,4.863-4,8.804-8.938,8.804c-4.936,0-8.938-3.941-8.938-8.804V492.546z"/>
				<path opacity="0.1" fill="#0B0C0C" enable-background="new    " d="M862.284,492.546v13.149c0,4.863-4,8.804-8.938,8.804
					v-30.753C858.285,483.746,862.284,487.685,862.284,492.546z"/>
			</g>
		</g>
	</g>
</g>
</svg>
