<?xml version="1.0" encoding="iso-8859-1"?>
<!-- Generator: Adobe Illustrator 16.0.0, SVG Export Plug-In . SVG Version: 6.00 Build 0)  -->
<!DOCTYPE svg PUBLIC "-//W3C//DTD SVG 1.1//EN" "http://www.w3.org/Graphics/SVG/1.1/DTD/svg11.dtd">
<svg version="1.1" id="Capa_1" xmlns="http://www.w3.org/2000/svg" xmlns:xlink="http://www.w3.org/1999/xlink" x="0px" y="0px"
	 width="589.051px" height="589.051px" viewBox="0 0 589.051 589.051" style="enable-background:new 0 0 589.051 589.051;"
	 xml:space="preserve">
<g>
	<g id="Layer_1_113_" style="fill:#fff;">
		<g>
			<path d="M470.475,244.801V140.25c12.75-8.925,21.676-22.95,21.676-40.8v-7.65c0-26.775-21.676-48.45-48.451-48.45H142.8
				c-26.775,0-48.45,21.675-48.45,48.45v7.65c0,22.95,16.575,43.35,39.525,47.175L84.15,303.45l0,0
				c-16.575,0-33.15,10.2-39.525,25.5L12.75,402.9C29.325,386.325,51,377.4,76.5,377.4c49.725,0,89.25,39.525,90.525,87.976H318.75
				c1.275-48.45,42.074-87.976,90.525-87.976c38.25,0,71.4,24.226,85.424,58.65h63.75c16.576,0,30.602-14.025,30.602-30.601V276.676
				c0-17.85-14.025-30.6-30.602-30.6h-87.975V244.801z M427.125,244.801h-58.65v58.649H339.15v67.575c0,11.476-8.926,20.4-20.4,20.4
				h-75.225c-11.475,0-20.4-8.925-20.4-20.4V303.45h-73.95l39.525-39.524l15.3,15.3l10.2-10.2l-43.35-40.8l-10.2,10.2l15.3,15.3
				l-43.35,43.35L179.775,147.9H425.85v96.9H427.125z"/>
			<path d="M76.5,392.7C34.425,392.7,0,427.126,0,469.2c0,42.075,34.425,76.5,76.5,76.5c42.075,0,76.5-34.425,76.5-76.5
				C153,425.851,118.575,392.7,76.5,392.7z M76.5,499.801c-17.85,0-31.875-14.025-31.875-31.875
				c0-17.851,14.025-31.875,31.875-31.875s31.875,14.024,31.875,31.875C108.375,485.775,94.35,499.801,76.5,499.801z"/>
			<path d="M409.275,392.7c-42.076,0-76.5,34.426-76.5,76.5c0,42.075,34.424,76.5,76.5,76.5c42.074,0,76.5-34.425,76.5-76.5
				C485.775,425.851,451.35,392.7,409.275,392.7z M409.275,499.801c-17.85,0-31.875-14.025-31.875-31.875
				c0-17.851,14.025-31.875,31.875-31.875s31.875,14.024,31.875,31.875C441.15,485.775,427.125,499.801,409.275,499.801z"/>
		</g>
	</g>
</g>
<g>
</g>
<g>
</g>
<g>
</g>
<g>
</g>
<g>
</g>
<g>
</g>
<g>
</g>
<g>
</g>
<g>
</g>
<g>
</g>
<g>
</g>
<g>
</g>
<g>
</g>
<g>
</g>
<g>
</g>
</svg>
