<?xml version="1.0" encoding="utf-8"?>
<!-- Generator: Adobe Illustrator 17.0.0, SVG Export Plug-In . SVG Version: 6.00 Build 0)  -->
<!DOCTYPE svg PUBLIC "-//W3C//DTD SVG 1.1//EN" "http://www.w3.org/Graphics/SVG/1.1/DTD/svg11.dtd">
<svg version="1.1" id="Objects" xmlns="http://www.w3.org/2000/svg" xmlns:xlink="http://www.w3.org/1999/xlink" x="0px" y="0px"
	 width="158px" height="109px" viewBox="0 0 158 109" enable-background="new 0 0 158 109" xml:space="preserve">
<g>
	<rect x="0.486" y="106.824" display="none" fill="#FFDE17" width="157.207" height="7.955"/>
	<g>
		<rect x="30.928" y="11.98" fill="#111A4F" width="67.164" height="3.663"/>
		<rect x="58.254" y="88.743" fill="#111A4F" width="46.619" height="10.001"/>
		<g>
			<path fill="#603913" d="M77.139,79.546l-6.771,9.479l-35.504-0.412l-2.545-11.744c-1.154-1.316-1.996-2.936-2.375-4.772
				l-3.549-17.253c-1.166-5.662,2.481-11.195,8.141-12.359l7.176-1.475c5.66-1.166,11.193,2.48,12.357,8.142l3.242,15.756
				c0.078-0.001,0.158-0.012,0.238-0.012h13.563c4.728,0,8.564,3.837,8.564,8.567C79.676,75.843,78.705,77.993,77.139,79.546z"/>
			<path opacity="0.2" enable-background="new    " d="M26.309,54.281c-0.822-5.461,2.754-10.672,8.227-11.798l7.176-1.475
				c5.66-1.166,11.193,2.48,12.357,8.142l3.242,15.756c0.078-0.001,0.158-0.012,0.238-0.012h13.563c4.728,0,8.564,3.837,8.564,8.567
				c0,2.24-0.867,4.27-2.275,5.796c-0.93-3.725-4.287-6.489-8.301-6.489H55.537c-0.08,0-0.16,0.01-0.238,0.012l-3.242-15.756
				c-1.164-5.662-6.697-9.308-12.357-8.142l-7.176,1.476C29.942,50.89,27.787,52.335,26.309,54.281z"/>
		</g>
		
			<ellipse transform="matrix(0.8762 0.4819 -0.4819 0.8762 32.5317 -36.3727)" fill="#111A4F" cx="87.071" cy="45.141" rx="2.354" ry="9.418"/>
		<path fill="#111A4F" d="M114.295,53.172c-6.693,0-12.121,5.679-12.121,12.685s5.428,12.686,12.121,12.686
			c6.695,0,15.723-6.676,12.121-12.686C122.758,59.752,120.991,53.172,114.295,53.172z"/>
		
			<rect x="96.636" y="41.035" transform="matrix(-0.575 0.8182 -0.8182 -0.575 198.2502 3.9838)" fill="#111A4F" width="2.908" height="24.9"/>
		<path fill="#8DC63F" d="M31.541,10.455c0-1.525-1.236-2.76-2.76-2.76l0,0c-1.524,0-2.76,1.235-2.76,2.76v68.774
			c0,1.526,1.237,2.761,2.76,2.761l0,0c1.524,0,2.76-1.236,2.76-2.761C31.541,79.229,31.541,10.455,31.541,10.455z"/>
		<path fill="#8DC63F" d="M100.143,8.812c-0.646-1.381-2.289-1.976-3.67-1.329l0,0c-1.379,0.646-1.976,2.288-1.33,3.669
			l29.174,62.281c0.647,1.382,2.291,1.976,3.67,1.329l0,0c1.381-0.647,1.975-2.289,1.33-3.67L100.143,8.812z"/>
		<path fill="#8DC63F" d="M145.949,78.543c0,10.042-7.882,18.182-17.609,18.184l-4.957-36.425
			C135.116,59.433,145.949,68.501,145.949,78.543z"/>
		<path fill="#8DC63F" d="M100.141,10.248c0-1.672-1.373-3.028-3.064-3.028h-67.99c-1.691,0-3.064,1.355-3.064,3.028l0,0
			c0,1.671,1.373,3.027,3.064,3.027h67.99C98.768,13.275,100.141,11.919,100.141,10.248L100.141,10.248z"/>
		<path fill="#8DC63F" d="M14.307,99.021h50.021c-13.359-34.217-50.021-25.49-50.021-25.49V99.021z"/>
		<path opacity="0.2" enable-background="new    " d="M14.401,99.043V83.992c3.084-2.108,6.806-3.345,10.822-3.345
			c10.332,0,18.734,8.169,19.158,18.396C44.381,99.043,14.401,99.043,14.401,99.043z"/>
		<path fill="#8DC63F" d="M137.41,98.791h-35.236c0.541-34.828,42.324-25.145,42.324-25.145L137.41,98.791z"/>
		<rect x="56.563" y="94.518" fill="#8DC63F" width="66.82" height="4.504"/>
		<path opacity="0.2" enable-background="new    " d="M137.424,98.839h-20.587c-0.162-0.936-0.264-1.891-0.264-2.871
			c0-9.255,7.504-16.758,16.76-16.758c4.596,0,8.758,1.854,11.783,4.849c-1.1,3.582-3.223,6.693-6.047,8.935L137.424,98.839z"/>
	</g>
</g>
</svg>
