<?xml version="1.0" encoding="iso-8859-1"?>
<!-- Generator: Adobe Illustrator 17.0.0, SVG Export Plug-In . SVG Version: 6.00 Build 0)  -->
<!DOCTYPE svg PUBLIC "-//W3C//DTD SVG 1.1//EN" "http://www.w3.org/Graphics/SVG/1.1/DTD/svg11.dtd">
<svg version="1.1" id="Objects" xmlns="http://www.w3.org/2000/svg" xmlns:xlink="http://www.w3.org/1999/xlink" x="0px" y="0px"
	 width="102.021px" height="128.132px" viewBox="0 0 102.021 128.132" style="enable-background:new 0 0 102.021 128.132;"
	 xml:space="preserve">
<g>
	<ellipse style="fill:#ABC98D;" cx="51.01" cy="111.613" rx="51.01" ry="16.519"/>
	<ellipse style="fill:#706F6F;" cx="50.589" cy="110.678" rx="11.018" ry="5.194"/>
	<path style="fill:#9D9D9C;" d="M50.589,107.873c5.212,0,9.576,1.707,10.721,4c0.192-0.383,0.297-0.783,0.297-1.195
		c0-2.869-4.933-5.195-11.018-5.195c-6.085,0-11.018,2.326-11.018,5.195c0,0.411,0.104,0.811,0.296,1.195
		C41.013,109.58,45.377,107.873,50.589,107.873z"/>
	<path style="fill:#FFFFFF;" d="M46.439,4.848l0,101.018v9.624c1.161,0.223,2.421,0.355,3.74,0.377l0-10.379l0-100.64L46.439,4.848z
		"/>
	<rect x="46.439" y="98.696" style="fill:#EB6251;" width="3.74" height="12.329"/>
	<rect x="46.439" y="74.04" style="fill:#EB6251;" width="3.74" height="12.329"/>
	<rect x="46.439" y="49.383" style="fill:#EB6251;" width="3.74" height="12.328"/>
	<rect x="46.439" y="24.727" style="fill:#EB6251;" width="3.74" height="12.328"/>
	<path style="fill:#E35747;" d="M58.075,4.614c0-4.2,17.416,7.747,25.45-4.166c-2.493,15.456-25.45,22.821-25.45,16.108
		L58.075,4.614z"/>
	<path style="fill:#C64041;" d="M58.075,4.932c2.442,2.79,7.792-2.82,8.898-1.197L66.924,15.29c0-3.293-1.103,6.048-8.85,2.718
		L58.075,4.932z"/>
	<path style="fill:#EB6251;" d="M46.439,7.721v13.714c10.874,3.601,20.473,4.594,20.506-6.957L66.973,3.7
		C66.946,13.435,56.205,9.521,46.439,7.721z"/>
	<circle style="fill:#FFFFFF;" cx="48.309" cy="3.186" r="3.186"/>
</g>
</svg>
