<?xml version="1.0" encoding="iso-8859-1"?>
<!-- Generator: Adobe Illustrator 17.0.0, SVG Export Plug-In . SVG Version: 6.00 Build 0)  -->
<!DOCTYPE svg PUBLIC "-//W3C//DTD SVG 1.1//EN" "http://www.w3.org/Graphics/SVG/1.1/DTD/svg11.dtd">
<svg version="1.1" id="Layer_6" xmlns="http://www.w3.org/2000/svg" xmlns:xlink="http://www.w3.org/1999/xlink" x="0px" y="0px"
	 width="222px" height="226px" viewBox="0 0 222 226" style="enable-background:new 0 0 222 226;" xml:space="preserve">
<g>
	<path style="fill:#FFFFFF;" d="M190.003,151.75c0,0,31.33-82.083-45.503-115C73.583,11.969,35.5,66.25,33.75,105
		s22.5,87.5,83,92.75l-4.083,3.75c0,0-50.167,3.5-80.917-49.5S34,18,114.721,19C182,19,201.5,75.5,203.75,98.75
		s-3.25,43.25-10.75,57"/>
	<path style="fill:#FFFFFF;" d="M161.333,134.333c5-15.667,4.333-64-44.333-68.333c-42.333-4-66,50.333-37,80.333
		c17.667,18.333,35.284,18.333,35.284,18.333V167c0,0-44.284,0-55.618-46C51,77,89.649,55.667,112.325,55.667
		s41.749,14,51.046,34.333s3.37,40.333,0,46C163.333,136,161.333,134.333,161.333,134.333z"/>
	<path style="fill:#FFFFFF;" d="M180,215.062c0-13.292-52.667,0-53.167,0c0,0,0.167-7.895,0.333-8.062
		c4.833-12.667,1.833-14.5,0.5-18l-20.5-49.667L29.5,168.167c1.606,3.296,1,13.333-0.667,14c-14.333-7-5-15.833-3.167-16.5
		c1.833-0.667,81.5-29,81.5-29.333c-2.5-7.667,5.667-13,5.5-12.833c-7.167-5.833-7.5-19.667-7.5-19.667s-6.833-0.833-6.833-0.667
		c-1.5-3,2.333-9.833,3.5-10.833c1.167-1,9.667-2.5,13.667-2.167c12-0.167,14.667,7.833,16,10.5c1.667,6.667-1.167,10.167-2,10.667
		s2.5,10,2.667,10.333c6,1.5,22.833-7.5,29.167-8.667c6.333-1.167,13.167,1.667,14.5,3.833c1.333,2.167,8.667,15.833,8.833,16.667
		c0.167,0.833,3.167,11.667,4.667,16.167s-2.333,10-4.833,10.167c-2.5,0.167-17-7.5-17-7.5l3.833,27.833c0,0,2,4.167,3.333,7.5
		c1.333,3.333,5.333,22,5.333,22V215.062 M156,129.5c0,0.833,8.5,8,10.5,8s8.833,6.833,9,6.667c0.167-0.167,0.167-5.5,0-8.667
		s-4.5-10.667-4.5-10.667c-4-3.5-9,0-9,0l-6,3.833V129.5z"/>
</g>
</svg>
