<?xml version="1.0" encoding="iso-8859-1"?>
<!-- Generator: Adobe Illustrator 17.0.0, SVG Export Plug-In . SVG Version: 6.00 Build 0)  -->
<!DOCTYPE svg PUBLIC "-//W3C//DTD SVG 1.1//EN" "http://www.w3.org/Graphics/SVG/1.1/DTD/svg11.dtd">
<svg version="1.1" id="Layer_1" xmlns="http://www.w3.org/2000/svg" xmlns:xlink="http://www.w3.org/1999/xlink" x="0px" y="0px"
	 width="100.315px" height="98.407px" viewBox="0 0 100.315 98.407" style="enable-background:new 0 0 100.315 98.407;"
	 xml:space="preserve">
<g>
	<g>
		
			<rect x="-12.88" y="49.416" transform="matrix(0.7091 0.7051 -0.7051 0.7091 49.8009 -20.8028)" style="fill:#B76C57;" width="125.985" height="1.077"/>
	</g>
	<g>
		
			<rect x="49.637" y="-13.41" transform="matrix(0.698 0.7161 -0.7161 0.698 50.2446 -21.1332)" style="fill:#B76C57;" width="1.077" height="124.814"/>
	</g>
</g>
<g>
	<g>
		<g>
			<path style="fill:#E89E6D;" d="M66.808,43.515L56.804,33.511L90.312,0l10.004,10.008L66.808,43.515z M58.572,33.511l8.236,8.236
				l31.74-31.739l-8.236-8.241L58.572,33.511z"/>
		</g>
		<g>
			
				<rect x="84.999" y="8.246" transform="matrix(0.707 0.7073 -0.7073 0.707 33.0728 -62.078)" style="fill:#E89E6D;" width="12.9" height="1.25"/>
		</g>
		<g>
			
				<rect x="81.752" y="11.491" transform="matrix(0.7071 0.7071 -0.7071 0.7071 34.4048 -58.8222)" style="fill:#E89E6D;" width="12.901" height="1.25"/>
		</g>
		<g>
			
				<rect x="78.51" y="14.734" transform="matrix(0.7072 0.707 -0.707 0.7072 35.7317 -55.5682)" style="fill:#E89E6D;" width="12.899" height="1.25"/>
		</g>
		<g>
			
				<rect x="75.264" y="17.978" transform="matrix(0.7072 0.707 -0.707 0.7072 37.0768 -52.3248)" style="fill:#E89E6D;" width="12.901" height="1.25"/>
		</g>
		<g>
			
				<rect x="72.02" y="21.222" transform="matrix(0.7071 0.7071 -0.7071 0.7071 38.4354 -49.0892)" style="fill:#E89E6D;" width="12.898" height="1.25"/>
		</g>
		<g>
			
				<rect x="68.776" y="24.465" transform="matrix(0.7071 0.7071 -0.7071 0.7071 39.7786 -45.846)" style="fill:#E89E6D;" width="12.9" height="1.25"/>
		</g>
		<g>
			
				<rect x="65.532" y="27.712" transform="matrix(0.7072 0.707 -0.707 0.7072 41.1082 -42.5937)" style="fill:#E89E6D;" width="12.898" height="1.25"/>
		</g>
		<g>
			
				<rect x="62.283" y="30.959" transform="matrix(0.7071 0.7071 -0.7071 0.7071 42.4611 -39.3512)" style="fill:#E89E6D;" width="12.904" height="1.25"/>
		</g>
		<g>
			
				<rect x="59.045" y="34.201" transform="matrix(0.7072 0.707 -0.707 0.7072 43.7954 -36.1071)" style="fill:#E89E6D;" width="12.899" height="1.25"/>
		</g>
		<g>
			<path style="fill:none;stroke:#E89E6D;stroke-width:1.2497;stroke-miterlimit:10;" d="M62.25,38.074"/>
		</g>
		<g>
			<path style="fill:none;stroke:#E89E6D;stroke-width:1.2497;stroke-miterlimit:10;" d="M94.873,5.446"/>
		</g>
	</g>
	<g>
		<g>
			<path style="fill:#E89E6D;" d="M90.218,99.812L56.712,66.306l10.004-10.007l33.511,33.511L90.218,99.812z M58.48,66.306
				l31.738,31.74l8.241-8.236L66.716,58.066L58.48,66.306z"/>
		</g>
		<g>
			
				<rect x="90.73" y="84.495" transform="matrix(0.7071 0.7071 -0.7071 0.7071 91.0658 -37.9602)" style="fill:#E89E6D;" width="1.25" height="12.902"/>
		</g>
		<g>
			
				<rect x="87.485" y="81.248" transform="matrix(0.7071 0.7071 -0.7071 0.7071 87.8191 -36.6172)" style="fill:#E89E6D;" width="1.25" height="12.9"/>
		</g>
		<g>
			
				<rect x="84.243" y="78.006" transform="matrix(0.7071 0.7071 -0.7071 0.7071 84.5767 -35.2741)" style="fill:#E89E6D;" width="1.25" height="12.9"/>
		</g>
		<g>
			
				<rect x="80.999" y="74.763" transform="matrix(0.7071 0.7071 -0.7071 0.7071 81.3325 -33.9302)" style="fill:#E89E6D;" width="1.25" height="12.898"/>
		</g>
		<g>
			
				<rect x="77.753" y="71.516" transform="matrix(0.7071 0.7071 -0.7071 0.7071 78.0793 -32.5865)" style="fill:#E89E6D;" width="1.25" height="12.897"/>
		</g>
		<g>
			
				<rect x="74.512" y="68.271" transform="matrix(0.7071 0.7071 -0.7071 0.7071 74.8443 -31.244)" style="fill:#E89E6D;" width="1.25" height="12.903"/>
		</g>
		<g>
			
				<rect x="71.265" y="65.028" transform="matrix(0.7071 0.7071 -0.7071 0.7071 71.5988 -29.8987)" style="fill:#E89E6D;" width="1.25" height="12.9"/>
		</g>
		<g>
			
				<rect x="68.018" y="61.782" transform="matrix(0.7071 0.7071 -0.7071 0.7071 68.3586 -28.5532)" style="fill:#E89E6D;" width="1.25" height="12.902"/>
		</g>
		<g>
			
				<rect x="64.776" y="58.542" transform="matrix(0.7071 0.7071 -0.7071 0.7071 65.1162 -27.2098)" style="fill:#E89E6D;" width="1.25" height="12.897"/>
		</g>
		<g>
			<path style="fill:none;stroke:#E89E6D;stroke-width:1.2497;stroke-miterlimit:10;" d="M62.155,61.744"/>
		</g>
		<g>
			<path style="fill:none;stroke:#E89E6D;stroke-width:1.2497;stroke-miterlimit:10;" d="M94.781,94.371"/>
		</g>
	</g>
	<g>
		<g>
			<path style="fill:#E89E6D;" d="M10.098,98.407L0.091,88.403l33.51-33.51L43.604,64.9L10.098,98.407z M1.858,88.403l8.239,8.236
				L41.837,64.9l-8.236-8.239L1.858,88.403z"/>
		</g>
		<g>
			
				<rect x="2.51" y="88.915" transform="matrix(0.7071 0.7071 -0.7071 0.7071 65.9432 19.892)" style="fill:#E89E6D;" width="12.903" height="1.25"/>
		</g>
		<g>
			
				<rect x="5.758" y="85.668" transform="matrix(0.7073 0.707 -0.707 0.7073 64.5789 16.632)" style="fill:#E89E6D;" width="12.899" height="1.25"/>
		</g>
		<g>
			
				<rect x="8.999" y="82.426" transform="matrix(0.7069 0.7073 -0.7073 0.7069 63.2695 13.4136)" style="fill:#E89E6D;" width="12.9" height="1.25"/>
		</g>
		<g>
			
				<rect x="12.243" y="79.18" transform="matrix(0.7069 0.7073 -0.7073 0.7069 61.9231 10.1663)" style="fill:#E89E6D;" width="12.901" height="1.25"/>
		</g>
		<g>
			
				<rect x="15.488" y="75.935" transform="matrix(0.7071 0.7071 -0.7071 0.7071 60.5632 6.9127)" style="fill:#E89E6D;" width="12.898" height="1.25"/>
		</g>
		<g>
			
				<rect x="18.729" y="72.692" transform="matrix(0.7071 0.7071 -0.7071 0.7071 59.2161 3.6684)" style="fill:#E89E6D;" width="12.902" height="1.25"/>
		</g>
		<g>
			
				<rect x="21.978" y="69.447" transform="matrix(0.7069 0.7073 -0.7073 0.7069 57.8951 0.4309)" style="fill:#E89E6D;" width="12.9" height="1.25"/>
		</g>
		<g>
			
				<rect x="25.222" y="66.203" transform="matrix(0.707 0.7072 -0.7072 0.707 56.5386 -2.8208)" style="fill:#E89E6D;" width="12.903" height="1.25"/>
		</g>
		<g>
			
				<rect x="28.468" y="62.96" transform="matrix(0.707 0.7072 -0.7072 0.707 55.1939 -6.064)" style="fill:#E89E6D;" width="12.896" height="1.25"/>
		</g>
		<g>
			<path style="fill:none;stroke:#E89E6D;stroke-width:1.2497;stroke-miterlimit:10;" d="M38.163,60.338"/>
		</g>
		<g>
			<path style="fill:none;stroke:#E89E6D;stroke-width:1.2497;stroke-miterlimit:10;" d="M5.536,92.965"/>
		</g>
	</g>
	<g>
		<g>
			<path style="fill:#E89E6D;" d="M33.509,43.606L0,10.1L10.005,0.093l33.509,33.51L33.509,43.606z M1.768,10.1l31.741,31.739
				l8.238-8.235L10.005,1.861L1.768,10.1z"/>
		</g>
		<g>
			
				<rect x="8.243" y="2.513" transform="matrix(0.7071 0.7071 -0.7071 0.7071 8.9368 -3.6452)" style="fill:#E89E6D;" width="1.25" height="12.902"/>
		</g>
		<g>
			
				<rect x="11.49" y="5.758" transform="matrix(0.7071 0.7071 -0.7071 0.7071 12.1813 -4.9906)" style="fill:#E89E6D;" width="1.25" height="12.901"/>
		</g>
		<g>
			
				<rect x="14.733" y="9.002" transform="matrix(0.7071 0.7071 -0.7071 0.7071 15.4236 -6.3341)" style="fill:#E89E6D;" width="1.25" height="12.898"/>
		</g>
		<g>
			
				<rect x="17.978" y="12.245" transform="matrix(0.7071 0.7071 -0.7071 0.7071 18.6685 -7.6781)" style="fill:#E89E6D;" width="1.25" height="12.901"/>
		</g>
		<g>
			
				<rect x="21.223" y="15.492" transform="matrix(0.7071 0.7071 -0.7071 0.7071 21.9129 -9.0226)" style="fill:#E89E6D;" width="1.25" height="12.896"/>
		</g>
		<g>
			
				<rect x="24.466" y="18.732" transform="matrix(0.7071 0.7071 -0.7071 0.7071 25.154 -10.3664)" style="fill:#E89E6D;" width="1.25" height="12.901"/>
		</g>
		<g>
			
				<rect x="27.71" y="21.98" transform="matrix(0.7071 0.7071 -0.7071 0.7071 28.4021 -11.7092)" style="fill:#E89E6D;" width="1.25" height="12.899"/>
		</g>
		<g>
			
				<rect x="30.956" y="25.224" transform="matrix(0.7071 0.7071 -0.7071 0.7071 31.6481 -13.0532)" style="fill:#E89E6D;" width="1.25" height="12.904"/>
		</g>
		<g>
			
				<rect x="34.198" y="28.47" transform="matrix(0.7071 0.7071 -0.7071 0.7071 34.8905 -14.3962)" style="fill:#E89E6D;" width="1.25" height="12.897"/>
		</g>
		<g>
			<path style="fill:none;stroke:#E89E6D;stroke-width:1.2497;stroke-miterlimit:10;" d="M38.069,38.166"/>
		</g>
		<g>
			<path style="fill:none;stroke:#E89E6D;stroke-width:1.2497;stroke-miterlimit:10;" d="M5.444,5.539"/>
		</g>
	</g>
</g>
<circle style="fill:#F37230;" cx="49.647" cy="49.859" r="3.005"/>
</svg>
